<svg width="140" height="65" viewBox="0 0 140 65" fill="none" xmlns="http://www.w3.org/2000/svg">
<g clip-path="url(#clip0_2080_3168)">
<path d="M65.1504 65L65.1504 0L0.000556946 -2.91725e-09L0.000556943 65L65.1504 65Z" fill="#E0FE71" style="fill:#E0FE71;fill:color(display-p3 0.8784 0.9961 0.4431);fill-opacity:1;"/>
<path d="M7.80273 20.428V56.6976H44.1563L57.3466 16.7354V8.30225H21.1391L7.80273 20.428Z" fill="white" style="fill:white;fill-opacity:1;"/>
<path d="M44.1566 57.1424H7.80302C7.55695 57.1424 7.35742 56.9434 7.35742 56.6979V20.4283C7.35742 20.3031 7.41004 20.184 7.50272 20.0996L20.8391 7.9738C20.9212 7.8991 21.0281 7.85791 21.139 7.85791H57.346C57.5921 7.85791 57.7916 8.05698 57.7916 8.30248V16.7356C57.7916 16.7829 57.7839 16.8297 57.7694 16.8745L44.5791 56.8368C44.5196 57.0193 44.3489 57.1424 44.1566 57.1424ZM8.24862 56.2537H43.834L56.9012 16.6646V8.74665H21.3122L8.24862 20.6245V56.2537Z" fill="black" style="fill:black;fill-opacity:1;"/>
<path d="M57.3474 17.1802H21.1399C20.8939 17.1802 20.6943 16.9811 20.6943 16.7356V8.30248C20.6943 8.05698 20.8939 7.85791 21.1399 7.85791H57.347C57.5931 7.85791 57.7926 8.05698 57.7926 8.30248V16.7356C57.7926 16.9811 57.5935 17.1802 57.3474 17.1802ZM21.5855 16.2911H56.9018V8.74665H21.5855V16.2911Z" fill="black" style="fill:black;fill-opacity:1;"/>
<path d="M44.1566 57.1421H7.80302C7.55695 57.1421 7.35742 56.9431 7.35742 56.6975V20.428C7.35742 20.1825 7.55695 19.9834 7.80302 19.9834H44.1566C44.4027 19.9834 44.6022 20.1825 44.6022 20.428V56.6979C44.6018 56.9431 44.4027 57.1421 44.1566 57.1421ZM8.24862 56.2534H43.711V20.8721H8.24862V56.2534Z" fill="black" style="fill:black;fill-opacity:1;"/>
<path d="M44.1566 20.8725C44.0364 20.8725 43.9166 20.8245 43.8288 20.7292C43.662 20.5487 43.6738 20.2672 43.8543 20.1013L57.0445 7.97548C57.2254 7.80912 57.5075 7.82083 57.6739 8.00092C57.8406 8.18142 57.8289 8.46286 57.6484 8.62881L44.4585 20.755C44.3727 20.8338 44.2647 20.8725 44.1566 20.8725Z" fill="black" style="fill:black;fill-opacity:1;"/>
<path d="M7.80327 57.1421C7.75673 57.1421 7.70938 57.1348 7.66243 57.1191C7.42891 57.0416 7.30264 56.79 7.38034 56.557L20.7167 16.5948C20.7944 16.3622 21.0461 16.2358 21.2801 16.3134C21.5136 16.3909 21.6398 16.6424 21.5621 16.8754L8.2258 56.8377C8.16388 57.0242 7.98985 57.1421 7.80327 57.1421Z" fill="black" style="fill:black;fill-opacity:1;"/>
<path d="M74.5371 32.7215V23.7578H80.17V24.9219H75.8929V27.6528H79.8762V28.8129H75.8929V31.557H80.2226V32.7211H74.5371V32.7215Z" fill="black" style="fill:black;fill-opacity:1;"/>
<path d="M86.9294 27.6402L85.7407 27.8502C85.6909 27.6984 85.6128 27.5542 85.506 27.4169C85.3995 27.2797 85.2554 27.1674 85.0741 27.0798C84.8928 26.9922 84.6662 26.9486 84.3942 26.9486C84.0227 26.9486 83.7126 27.0309 83.4641 27.1957C83.2156 27.3604 83.0914 27.5728 83.0914 27.8324C83.0914 28.0574 83.1748 28.2383 83.3415 28.3751C83.5083 28.512 83.7774 28.6247 84.1489 28.7119L85.2194 28.957C85.8395 29.0999 86.3012 29.3204 86.6056 29.618C86.9095 29.9156 87.0621 30.3024 87.0621 30.7781C87.0621 31.1807 86.9456 31.5388 86.7132 31.8526C86.4809 32.1663 86.1576 32.4118 85.7439 32.5903C85.3299 32.7684 84.8511 32.8572 84.3072 32.8572C83.5528 32.8572 82.9372 32.6961 82.4604 32.3735C81.9837 32.0512 81.6911 31.5925 81.583 30.9973L82.851 30.8047C82.9299 31.1346 83.0922 31.3834 83.3379 31.5509C83.5835 31.7189 83.9037 31.8025 84.2987 31.8025C84.7285 31.8025 85.0721 31.7129 85.3295 31.5332C85.5869 31.3539 85.7156 31.1342 85.7156 30.8746C85.7156 30.6642 85.6375 30.4882 85.4809 30.3448C85.3246 30.2019 85.0851 30.0937 84.7637 30.021L83.6232 29.7714C82.9943 29.6285 82.5301 29.4008 82.2306 29.0886C81.9307 28.7765 81.7809 28.3812 81.7809 27.9027C81.7809 27.5062 81.8922 27.1589 82.1144 26.8613C82.3366 26.5637 82.6438 26.3312 83.0355 26.1632C83.4277 25.9956 83.8766 25.9116 84.3825 25.9116C85.1105 25.9116 85.684 26.0687 86.1021 26.382C86.5186 26.6954 86.795 27.1149 86.9294 27.6402Z" fill="black" style="fill:black;fill-opacity:1;"/>
<path d="M91.3383 32.8571C90.6863 32.8571 90.1254 32.7089 89.6563 32.4125C89.1868 32.1166 88.8262 31.7071 88.5749 31.185C88.3231 30.6625 88.1973 30.0645 88.1973 29.3906C88.1973 28.7078 88.326 28.1045 88.5834 27.5808C88.8408 27.0571 89.2034 26.648 89.6713 26.3533C90.1391 26.0585 90.6903 25.9111 91.3253 25.9111C91.8369 25.9111 92.293 26.0052 92.6941 26.1934C93.0948 26.382 93.4186 26.6452 93.6654 26.9836C93.9127 27.322 94.0596 27.7173 94.1062 28.1695H92.8297C92.7597 27.8542 92.5994 27.5828 92.3493 27.3555C92.0992 27.1277 91.7649 27.0139 91.3468 27.0139C90.9809 27.0139 90.6616 27.1096 90.3884 27.3006C90.1148 27.4916 89.902 27.7629 89.7502 28.1146C89.598 28.4663 89.5219 28.8814 89.5219 29.3599C89.5219 29.8501 89.5964 30.2733 89.7457 30.629C89.8947 30.9851 90.1059 31.2605 90.3795 31.456C90.6531 31.6514 90.9753 31.7495 91.3468 31.7495C91.5953 31.7495 91.8211 31.7035 92.0243 31.6114C92.2279 31.5198 92.3987 31.3873 92.5375 31.2153C92.6767 31.0433 92.7738 30.8362 92.8293 30.5939H94.1058C94.0588 31.0288 93.9172 31.4168 93.6804 31.758C93.4432 32.0996 93.1268 32.3677 92.7305 32.5632C92.3351 32.759 91.8709 32.8571 91.3383 32.8571Z" fill="black" style="fill:black;fill-opacity:1;"/>
<path d="M95.5146 32.7217V25.999H96.7826V27.067H96.8527C96.9753 26.7052 97.1926 26.4197 97.5042 26.2114C97.8155 26.003 98.1688 25.8984 98.5638 25.8984C98.6456 25.8984 98.7427 25.9013 98.8552 25.9073C98.9677 25.9134 99.0564 25.9206 99.1207 25.9291V27.1809C99.0681 27.1663 98.9742 27.1498 98.8398 27.1304C98.7055 27.1114 98.5707 27.1017 98.4363 27.1017C98.1263 27.1017 97.8507 27.1667 97.6095 27.2964C97.3683 27.4264 97.1772 27.6057 97.0368 27.835C96.8964 28.064 96.8263 28.3244 96.8263 28.6159V32.7213H95.5146V32.7217Z" fill="black" style="fill:black;fill-opacity:1;"/>
<path d="M100.924 24.9617C100.695 24.9617 100.5 24.885 100.338 24.7319C100.176 24.5785 100.095 24.3956 100.095 24.1828C100.095 23.9667 100.176 23.7822 100.338 23.6292C100.5 23.4761 100.695 23.3994 100.924 23.3994C101.152 23.3994 101.347 23.4761 101.509 23.6292C101.672 23.7826 101.753 23.9671 101.753 24.1828C101.753 24.3956 101.672 24.5785 101.509 24.7319C101.347 24.885 101.151 24.9617 100.924 24.9617ZM100.261 32.7217V25.999H101.573V32.7217H100.261Z" fill="black" style="fill:black;fill-opacity:1;"/>
<path d="M106.481 25.9989V27.0496H102.801V25.9989H106.481ZM103.788 24.3882H105.1V30.7475C105.1 31.001 105.138 31.1916 105.214 31.3184C105.289 31.4452 105.389 31.5312 105.51 31.5768C105.631 31.6221 105.763 31.6447 105.907 31.6447C106.012 31.6447 106.104 31.6378 106.183 31.6229C106.262 31.6083 106.323 31.5966 106.367 31.5882L106.604 32.6691C106.528 32.6986 106.42 32.7285 106.279 32.7587C106.139 32.7894 105.963 32.806 105.753 32.8092C105.408 32.8153 105.086 32.7539 104.788 32.6255C104.489 32.4971 104.248 32.2988 104.064 32.0303C103.88 31.7618 103.787 31.425 103.787 31.0192V24.3882H103.788Z" fill="black" style="fill:black;fill-opacity:1;"/>
<path d="M110.697 32.8573C110.065 32.8573 109.514 32.7127 109.043 32.4236C108.572 32.1349 108.206 31.7307 107.946 31.2115C107.686 30.6922 107.556 30.0853 107.556 29.3908C107.556 28.6934 107.686 28.0837 107.946 27.5612C108.206 27.0387 108.572 26.6333 109.043 26.3442C109.514 26.0555 110.065 25.9109 110.697 25.9109C111.328 25.9109 111.88 26.0555 112.351 26.3442C112.821 26.6329 113.187 27.0387 113.448 27.5612C113.708 28.0837 113.838 28.6934 113.838 29.3908C113.838 30.0853 113.708 30.6922 113.448 31.2115C113.187 31.7307 112.821 32.1349 112.351 32.4236C111.88 32.7127 111.328 32.8573 110.697 32.8573ZM110.701 31.7586C111.11 31.7586 111.45 31.6508 111.719 31.4348C111.988 31.2187 112.187 30.9316 112.318 30.5727C112.448 30.2137 112.513 29.8184 112.513 29.3867C112.513 28.9579 112.448 28.5634 112.318 28.2028C112.188 27.8422 111.988 27.5527 111.719 27.3339C111.449 27.115 111.11 27.0056 110.701 27.0056C110.289 27.0056 109.947 27.115 109.677 27.3339C109.406 27.5527 109.206 27.8422 109.076 28.2028C108.945 28.563 108.881 28.9579 108.881 29.3867C108.881 29.8188 108.946 30.2137 109.076 30.5727C109.206 30.9316 109.406 31.2187 109.677 31.4348C109.947 31.6508 110.289 31.7586 110.701 31.7586ZM110.157 25.1017L111.184 23.084H112.566L111.205 25.1017H110.157Z" fill="black" style="fill:black;fill-opacity:1;"/>
<path d="M115.299 32.7217V25.999H116.567V27.067H116.637C116.759 26.7052 116.977 26.4197 117.288 26.2114C117.6 26.003 117.953 25.8984 118.348 25.8984C118.43 25.8984 118.527 25.9013 118.639 25.9073C118.752 25.9134 118.841 25.9206 118.905 25.9291V27.1809C118.852 27.1663 118.758 27.1498 118.624 27.1304C118.49 27.1114 118.355 27.1017 118.221 27.1017C117.91 27.1017 117.635 27.1667 117.394 27.2964C117.152 27.4264 116.961 27.6057 116.821 27.835C116.681 28.064 116.611 28.3244 116.611 28.6159V32.7213H115.299V32.7217Z" fill="black" style="fill:black;fill-opacity:1;"/>
<path d="M120.708 24.9617C120.48 24.9617 120.284 24.885 120.122 24.7319C119.96 24.5785 119.879 24.3956 119.879 24.1828C119.879 23.9667 119.96 23.7822 120.122 23.6292C120.284 23.4761 120.48 23.3994 120.708 23.3994C120.936 23.3994 121.131 23.4761 121.293 23.6292C121.456 23.7826 121.537 23.9671 121.537 24.1828C121.537 24.3956 121.456 24.5785 121.293 24.7319C121.131 24.885 120.936 24.9617 120.708 24.9617ZM120.045 32.7217V25.999H121.357V32.7217H120.045Z" fill="black" style="fill:black;fill-opacity:1;"/>
<path d="M125.958 32.8575C125.327 32.8575 124.775 32.713 124.305 32.4239C123.834 32.1351 123.468 31.731 123.208 31.2117C122.948 30.6924 122.817 30.0855 122.817 29.391C122.817 28.6936 122.948 28.0839 123.208 27.5614C123.468 27.0389 123.834 26.6335 124.305 26.3444C124.775 26.0557 125.327 25.9111 125.958 25.9111C126.59 25.9111 127.141 26.0557 127.613 26.3444C128.084 26.6331 128.449 27.0389 128.709 27.5614C128.97 28.0839 129.1 28.6936 129.1 29.391C129.1 30.0855 128.97 30.6924 128.709 31.2117C128.449 31.731 128.083 32.1351 127.613 32.4239C127.142 32.713 126.59 32.8575 125.958 32.8575ZM125.963 31.7588C126.372 31.7588 126.712 31.651 126.981 31.435C127.25 31.2189 127.449 30.9319 127.58 30.5729C127.71 30.2139 127.775 29.8186 127.775 29.387C127.775 28.9581 127.71 28.5636 127.58 28.203C127.45 27.8425 127.25 27.5529 126.981 27.3341C126.712 27.1152 126.372 27.0058 125.963 27.0058C125.551 27.0058 125.209 27.1152 124.939 27.3341C124.669 27.5529 124.468 27.8425 124.338 28.203C124.208 28.5636 124.143 28.9581 124.143 29.387C124.143 29.819 124.208 30.2139 124.338 30.5729C124.468 30.9319 124.668 31.2189 124.939 31.435C125.209 31.651 125.551 31.7588 125.963 31.7588Z" fill="black" style="fill:black;fill-opacity:1;"/>
<path d="M76.9537 47.6424C76.4098 47.6424 75.9249 47.5031 75.4996 47.2245C75.0738 46.9459 74.7407 46.5477 74.4995 46.0297C74.2583 45.512 74.1377 44.8898 74.1377 44.1629C74.1377 43.4365 74.2595 42.8147 74.504 42.2987C74.748 41.7822 75.0835 41.3869 75.5109 41.1127C75.9379 40.8385 76.4219 40.7013 76.9626 40.7013C77.3807 40.7013 77.7178 40.7707 77.974 40.9092C78.2298 41.0477 78.4289 41.2088 78.5706 41.393C78.7122 41.5767 78.8227 41.7386 78.9021 41.8787H78.981V38.5479H80.2927V47.5112H79.0117V46.4654H78.9021C78.8231 46.6083 78.7098 46.7718 78.5621 46.9556C78.4144 47.1393 78.212 47.2996 77.9546 47.4369C77.6964 47.5742 77.3633 47.6424 76.9537 47.6424ZM77.2435 46.5267C77.6211 46.5267 77.9404 46.4266 78.2019 46.2271C78.4637 46.0272 78.6625 45.749 78.7984 45.3933C78.9344 45.0376 79.0024 44.6233 79.0024 44.1504C79.0024 43.6836 78.9352 43.275 78.8005 42.9249C78.6661 42.5748 78.4686 42.3019 78.2084 42.1064C77.9481 41.911 77.6264 41.8129 77.2431 41.8129C76.8485 41.8129 76.5195 41.915 76.256 42.1194C75.9929 42.3237 75.7946 42.6027 75.6619 42.9552C75.5287 43.3081 75.4619 43.7067 75.4619 44.15C75.4619 44.599 75.5291 45.0032 75.6639 45.3622C75.7987 45.7212 75.9978 46.0046 76.2629 46.2134C76.5276 46.4221 76.8542 46.5267 77.2435 46.5267Z" fill="black" style="fill:black;fill-opacity:1;"/>
<path d="M85.0648 47.6472C84.4011 47.6472 83.83 47.5046 83.3516 47.2204C82.8733 46.9357 82.505 46.5347 82.246 46.0167C81.9869 45.499 81.8574 44.8913 81.8574 44.194C81.8574 43.5055 81.9869 42.8986 82.246 42.3733C82.5046 41.8479 82.8672 41.4381 83.3338 41.1433C83.8005 40.8486 84.3464 40.7012 84.9721 40.7012C85.3522 40.7012 85.7209 40.7642 86.0774 40.8893C86.4344 41.0149 86.7545 41.212 87.0382 41.4801C87.322 41.7486 87.5454 42.0967 87.7097 42.5239C87.8732 42.9511 87.9553 43.47 87.9553 44.0797V44.5436H82.5989V43.5632H86.6699C86.6699 43.2192 86.5995 42.9135 86.4595 42.6462C86.3191 42.3793 86.1224 42.1681 85.8694 42.0135C85.6165 41.8592 85.3202 41.7817 84.9815 41.7817C84.6132 41.7817 84.2918 41.8714 84.0186 42.051C83.745 42.2303 83.5346 42.4637 83.3869 42.7512C83.2391 43.0387 83.1655 43.35 83.1655 43.6856V44.4516C83.1655 44.901 83.2452 45.2834 83.4047 45.5983C83.5641 45.9133 83.7871 46.1535 84.0737 46.3183C84.3602 46.483 84.6953 46.5658 85.0782 46.5658C85.3267 46.5658 85.5537 46.5299 85.7581 46.4584C85.9629 46.3869 86.1398 46.2799 86.2891 46.1366C86.4384 45.9936 86.5522 45.8172 86.6315 45.6068L87.8732 45.8301C87.7736 46.1947 87.5959 46.5137 87.3402 46.7863C87.0844 47.0592 86.7638 47.2708 86.3794 47.421C85.9941 47.5717 85.5562 47.6472 85.0648 47.6472Z" fill="black" style="fill:black;fill-opacity:1;"/>
<path d="M92.7939 47.5112V38.5479H95.9961C96.695 38.5479 97.2742 38.6746 97.7332 38.9286C98.1921 39.1826 98.5357 39.5291 98.764 39.9684C98.9922 40.4077 99.1064 40.9015 99.1064 41.4499C99.1064 42.0015 98.9914 42.4965 98.7619 42.9358C98.5321 43.3752 98.1872 43.722 97.7267 43.9776C97.2661 44.2328 96.6878 44.3604 95.9916 44.3604H93.7896V43.2136H95.869C96.3106 43.2136 96.6687 43.1369 96.9439 42.9839C97.2188 42.8308 97.4203 42.6213 97.549 42.356C97.6777 42.0907 97.7421 41.7887 97.7421 41.4499C97.7421 41.1111 97.6777 40.8107 97.549 40.5482C97.4203 40.2858 97.2175 40.0798 96.9415 39.9308C96.6651 39.7822 96.3017 39.7079 95.8512 39.7079H94.1489V47.5116H92.7939V47.5112Z" fill="black" style="fill:black;fill-opacity:1;"/>
<path d="M100.585 47.5112V40.7885H101.853V41.8566H101.923C102.046 41.4948 102.263 41.2093 102.575 41.0009C102.886 40.7926 103.239 40.688 103.634 40.688C103.716 40.688 103.813 40.6908 103.926 40.6969C104.038 40.7029 104.127 40.7102 104.191 40.7187V41.9704C104.138 41.9559 104.045 41.9393 103.91 41.92C103.776 41.901 103.641 41.8913 103.507 41.8913C103.197 41.8913 102.921 41.9563 102.68 42.0859C102.439 42.2159 102.248 42.3952 102.107 42.6246C101.967 42.8535 101.897 43.114 101.897 43.4055V47.5108H100.585V47.5112Z" fill="black" style="fill:black;fill-opacity:1;"/>
<path d="M107.924 47.6471C107.293 47.6471 106.741 47.5025 106.271 47.2134C105.799 46.9247 105.434 46.5205 105.174 46.0012C104.914 45.482 104.783 44.8751 104.783 44.1805C104.783 43.4832 104.914 42.8735 105.174 42.351C105.434 41.8285 105.799 41.4231 106.271 41.134C106.741 40.8452 107.293 40.7007 107.924 40.7007C108.556 40.7007 109.107 40.8452 109.578 41.134C110.049 41.4227 110.414 41.8285 110.675 42.351C110.935 42.8735 111.066 43.4832 111.066 44.1805C111.066 44.8751 110.935 45.482 110.675 46.0012C110.414 46.5205 110.049 46.9247 109.578 47.2134C109.107 47.5025 108.556 47.6471 107.924 47.6471ZM107.929 46.5484C108.338 46.5484 108.677 46.4406 108.946 46.2245C109.215 46.0085 109.415 45.7214 109.545 45.3624C109.675 45.0035 109.74 44.6082 109.74 44.1765C109.74 43.7477 109.675 43.3532 109.545 42.9926C109.415 42.6324 109.215 42.3425 108.946 42.1236C108.677 41.9048 108.338 41.7954 107.929 41.7954C107.516 41.7954 107.175 41.9048 106.904 42.1236C106.634 42.3425 106.434 42.632 106.303 42.9926C106.173 43.3528 106.108 43.7477 106.108 44.1765C106.108 44.6086 106.173 45.0035 106.303 45.3624C106.433 45.7214 106.634 46.0085 106.904 46.2245C107.175 46.4401 107.517 46.5484 107.929 46.5484Z" fill="black" style="fill:black;fill-opacity:1;"/>
<path d="M112.526 40.7886H113.838V47.949C113.838 48.3985 113.757 48.7776 113.595 49.0869C113.433 49.3962 113.193 49.6312 112.875 49.7915C112.557 49.9522 112.167 50.0322 111.702 50.0322C111.655 50.0322 111.61 50.0322 111.568 50.0322C111.525 50.0322 111.481 50.031 111.434 50.0277V48.9028C111.474 48.9028 111.51 48.9028 111.541 48.9028C111.572 48.9028 111.606 48.9028 111.644 48.9028C111.954 48.9028 112.179 48.8204 112.317 48.6553C112.457 48.4905 112.526 48.2519 112.526 47.9398V40.7886H112.526ZM113.176 39.7517C112.947 39.7517 112.752 39.675 112.59 39.522C112.428 39.3685 112.346 39.1856 112.346 38.9728C112.346 38.7568 112.428 38.5722 112.59 38.4192C112.752 38.2662 112.947 38.1895 113.176 38.1895C113.404 38.1895 113.599 38.2662 113.761 38.4192C113.923 38.5726 114.004 38.7572 114.004 38.9728C114.004 39.1856 113.923 39.3685 113.761 39.522C113.599 39.675 113.404 39.7517 113.176 39.7517Z" fill="black" style="fill:black;fill-opacity:1;"/>
<path d="M118.505 47.6472C117.842 47.6472 117.27 47.5046 116.792 47.2204C116.314 46.9357 115.945 46.5347 115.686 46.0167C115.427 45.499 115.298 44.8913 115.298 44.194C115.298 43.5055 115.427 42.8986 115.686 42.3733C115.945 41.8479 116.308 41.4381 116.774 41.1433C117.241 40.8486 117.787 40.7012 118.413 40.7012C118.793 40.7012 119.161 40.7642 119.518 40.8893C119.875 41.0149 120.195 41.212 120.479 41.4801C120.763 41.7486 120.986 42.0967 121.151 42.5239C121.314 42.9511 121.396 43.47 121.396 44.0797V44.5436H116.04V43.5632H120.111C120.111 43.2192 120.04 42.9135 119.9 42.6462C119.76 42.3793 119.563 42.1681 119.31 42.0135C119.057 41.8592 118.761 41.7817 118.422 41.7817C118.054 41.7817 117.733 41.8714 117.459 42.051C117.186 42.2303 116.975 42.4637 116.828 42.7512C116.68 43.0387 116.606 43.35 116.606 43.6856V44.4516C116.606 44.901 116.686 45.2834 116.846 45.5983C117.005 45.9133 117.228 46.1535 117.515 46.3183C117.801 46.483 118.136 46.5658 118.519 46.5658C118.768 46.5658 118.995 46.5299 119.199 46.4584C119.404 46.3869 119.581 46.2799 119.73 46.1366C119.879 45.9936 119.993 45.8172 120.072 45.6068L121.314 45.8301C121.214 46.1947 121.037 46.5137 120.781 46.7863C120.525 47.0592 120.205 47.2708 119.82 47.421C119.434 47.5717 118.997 47.6472 118.505 47.6472Z" fill="black" style="fill:black;fill-opacity:1;"/>
<path d="M126.002 40.7885V41.8392H122.321V40.7885H126.002ZM123.308 39.1782H124.62V45.5375C124.62 45.7911 124.658 45.9817 124.734 46.1085C124.81 46.2352 124.909 46.3213 125.03 46.3669C125.151 46.4121 125.284 46.4347 125.427 46.4347C125.532 46.4347 125.625 46.4279 125.704 46.4129C125.782 46.3984 125.844 46.3867 125.888 46.3782L126.124 47.4591C126.048 47.4886 125.94 47.5185 125.8 47.5488C125.659 47.5795 125.484 47.596 125.273 47.5993C124.928 47.6053 124.606 47.5439 124.308 47.4155C124.01 47.2871 123.768 47.0889 123.584 46.8203C123.4 46.5518 123.308 46.2151 123.308 45.8093V39.1782H123.308Z" fill="black" style="fill:black;fill-opacity:1;"/>
<path d="M130.218 47.6471C129.587 47.6471 129.035 47.5025 128.564 47.2134C128.093 46.9247 127.728 46.5205 127.468 46.0012C127.207 45.482 127.077 44.8751 127.077 44.1805C127.077 43.4832 127.207 42.8735 127.468 42.351C127.728 41.8285 128.093 41.4231 128.564 41.134C129.035 40.8452 129.587 40.7007 130.218 40.7007C130.85 40.7007 131.401 40.8452 131.872 41.134C132.343 41.4227 132.708 41.8285 132.969 42.351C133.229 42.8735 133.36 43.4832 133.36 44.1805C133.36 44.8751 133.229 45.482 132.969 46.0012C132.708 46.5205 132.343 46.9247 131.872 47.2134C131.401 47.5025 130.85 47.6471 130.218 47.6471ZM130.223 46.5484C130.632 46.5484 130.971 46.4406 131.24 46.2245C131.509 46.0085 131.709 45.7214 131.839 45.3624C131.969 45.0035 132.034 44.6082 132.034 44.1765C132.034 43.7477 131.969 43.3532 131.839 42.9926C131.709 42.6324 131.509 42.3425 131.24 42.1236C130.971 41.9048 130.632 41.7954 130.223 41.7954C129.81 41.7954 129.469 41.9048 129.198 42.1236C128.928 42.3425 128.728 42.632 128.597 42.9926C128.467 43.3528 128.402 43.7477 128.402 44.1765C128.402 44.6086 128.467 45.0035 128.597 45.3624C128.728 45.7214 128.928 46.0085 129.198 46.2245C129.469 46.4401 129.81 46.5484 130.223 46.5484Z" fill="black" style="fill:black;fill-opacity:1;"/>
<path d="M139.869 42.4298L138.68 42.6398C138.63 42.4879 138.552 42.3438 138.445 42.2065C138.339 42.0692 138.195 41.957 138.014 41.8693C137.832 41.7817 137.606 41.7381 137.334 41.7381C136.962 41.7381 136.652 41.8205 136.404 41.9852C136.155 42.15 136.031 42.3624 136.031 42.622C136.031 42.8469 136.114 43.0278 136.281 43.1647C136.448 43.302 136.717 43.4142 137.088 43.5015L138.159 43.7466C138.779 43.8895 139.241 44.11 139.545 44.4076C139.849 44.7051 140.002 45.092 140.002 45.5676C140.002 45.9702 139.885 46.3284 139.653 46.6421C139.42 46.9559 139.097 47.2014 138.683 47.3798C138.269 47.5579 137.791 47.6468 137.247 47.6468C136.492 47.6468 135.877 47.4856 135.4 47.163C134.923 46.8408 134.631 46.3821 134.522 45.7869L135.79 45.5943C135.869 45.9242 136.032 46.1729 136.277 46.3405C136.523 46.5085 136.843 46.5921 137.238 46.5921C137.668 46.5921 138.012 46.5024 138.269 46.3227C138.526 46.1434 138.655 45.9238 138.655 45.6641C138.655 45.4538 138.577 45.2777 138.42 45.1344C138.264 44.991 138.024 44.8832 137.703 44.8105L136.563 44.561C135.934 44.4181 135.47 44.1903 135.17 43.8782C134.87 43.5661 134.72 43.1708 134.72 42.6923C134.72 42.2957 134.832 41.9485 135.054 41.6509C135.276 41.3533 135.583 41.1207 135.975 40.9527C136.367 40.7852 136.816 40.7012 137.322 40.7012C138.05 40.7012 138.623 40.8582 139.042 41.1716C139.458 41.4853 139.734 41.9049 139.869 42.4298Z" fill="black" style="fill:black;fill-opacity:1;"/>
<path d="M76.9537 62.432C76.4098 62.432 75.9249 62.2926 75.4996 62.014C75.0738 61.7354 74.7407 61.3373 74.4995 60.8192C74.2583 60.3016 74.1377 59.6793 74.1377 58.9525C74.1377 58.2261 74.2595 57.6042 74.504 57.0882C74.748 56.5718 75.0835 56.1764 75.5109 55.9023C75.9379 55.6281 76.4219 55.4908 76.9626 55.4908C77.3807 55.4908 77.7178 55.5603 77.974 55.6988C78.2298 55.8373 78.4289 55.9984 78.5706 56.1825C78.7122 56.3662 78.8227 56.5281 78.9021 56.6683H78.981V53.3374H80.2927V62.3007H79.0117V61.2549H78.9021C78.8231 61.3978 78.7098 61.5614 78.5621 61.7451C78.4144 61.9288 78.212 62.0891 77.9546 62.2264C77.6964 62.3637 77.3633 62.432 76.9537 62.432ZM77.2435 61.3163C77.6211 61.3163 77.9404 61.2161 78.2019 61.0167C78.4637 60.8168 78.6625 60.5386 78.7984 60.1828C78.9344 59.8271 79.0024 59.4128 79.0024 58.94C79.0024 58.4732 78.9352 58.0646 78.8005 57.7145C78.6661 57.3644 78.4686 57.0914 78.2084 56.896C77.9481 56.7006 77.6264 56.6024 77.2431 56.6024C76.8485 56.6024 76.5195 56.7046 76.256 56.9089C75.9929 57.1132 75.7946 57.3923 75.6619 57.7448C75.5287 58.0977 75.4619 58.4962 75.4619 58.9396C75.4619 59.3886 75.5291 59.7928 75.6639 60.1518C75.7983 60.5107 75.9978 60.7942 76.2629 61.0029C76.5276 61.2117 76.8542 61.3163 77.2435 61.3163Z" fill="black" style="fill:black;fill-opacity:1;"/>
<path d="M84.1213 62.45C83.6943 62.45 83.3082 62.3705 82.963 62.2114C82.6181 62.0523 82.345 61.8213 82.145 61.5177C81.9447 61.2144 81.8447 60.8421 81.8447 60.4016C81.8447 60.0225 81.918 59.7099 82.0641 59.4648C82.2106 59.2197 82.4077 59.0259 82.6562 58.883C82.9047 58.74 83.1827 58.6318 83.4899 58.5591C83.7971 58.486 84.1099 58.4307 84.4289 58.3928C84.8324 58.3459 85.1598 58.3072 85.4115 58.2769C85.6629 58.2462 85.8458 58.1957 85.9595 58.1259C86.0736 58.0556 86.1307 57.9421 86.1307 57.7842V57.7536C86.1307 57.3712 86.0231 57.0752 85.8081 56.8648C85.5932 56.6548 85.2735 56.5499 84.8498 56.5499C84.4082 56.5499 84.061 56.6468 83.808 56.841C83.5551 57.0352 83.3802 57.25 83.2839 57.4867L82.0511 57.2064C82.1972 56.7982 82.4113 56.4675 82.6934 56.2151C82.9755 55.9628 83.3013 55.779 83.6696 55.6635C84.0379 55.5481 84.4256 55.4907 84.832 55.4907C85.1011 55.4907 85.3868 55.5222 85.6896 55.5848C85.9919 55.6478 86.276 55.7621 86.5403 55.9284C86.805 56.0948 87.0219 56.3318 87.1915 56.6395C87.3611 56.9472 87.446 57.3461 87.446 57.8367V62.301H86.1651V61.382H86.1125C86.0275 61.5512 85.9004 61.7176 85.7309 61.8807C85.5613 62.0442 85.3435 62.1799 85.0772 62.2877C84.8113 62.3959 84.4924 62.45 84.1213 62.45ZM84.4066 61.3998C84.7692 61.3998 85.0801 61.3283 85.3387 61.1854C85.5977 61.0424 85.7952 60.8551 85.9308 60.6229C86.0668 60.3911 86.1348 60.1424 86.1348 59.8767V59.0102C86.0878 59.057 85.998 59.0998 85.8648 59.1394C85.7317 59.1789 85.5803 59.2124 85.4111 59.2399C85.2411 59.2678 85.076 59.2924 84.9153 59.3142C84.7547 59.3364 84.6199 59.3546 84.5118 59.3691C84.2573 59.4014 84.0254 59.4551 83.8165 59.531C83.6073 59.607 83.4405 59.7156 83.3167 59.8569C83.1924 59.9982 83.1301 60.186 83.1301 60.4194C83.1301 60.7432 83.2499 60.9879 83.4899 61.1523C83.7291 61.317 84.0351 61.3998 84.4066 61.3998Z" fill="black" style="fill:black;fill-opacity:1;"/>
<path d="M98.3483 53.3374H99.7081V59.2327C99.7081 59.8602 99.5604 60.415 99.2654 60.898C98.9699 61.3809 98.5547 61.76 98.0196 62.0358C97.4846 62.3116 96.8569 62.4493 96.1377 62.4493C95.4213 62.4493 94.7952 62.3116 94.2602 62.0358C93.7251 61.76 93.3099 61.3809 93.0145 60.898C92.719 60.415 92.5713 59.8598 92.5713 59.2327V53.3374H93.9267V59.1233C93.9267 59.5287 94.0165 59.8893 94.1966 60.2042C94.3767 60.5192 94.6317 60.7667 94.9624 60.946C95.2926 61.1257 95.6844 61.2153 96.1381 61.2153C96.5942 61.2153 96.9884 61.1257 97.3203 60.946C97.6522 60.7667 97.9067 60.5192 98.0836 60.2042C98.2604 59.8889 98.3491 59.5287 98.3491 59.1233V53.3374H98.3483Z" fill="black" style="fill:black;fill-opacity:1;"/>
<path d="M101.682 62.3012V53.3379H107.253V54.502H103.037V57.2328H106.854V58.3929H103.037V62.3012H101.682Z" fill="black" style="fill:black;fill-opacity:1;"/>
<path d="M116.382 56.2522H115.014C114.961 55.9607 114.863 55.7039 114.72 55.4822C114.576 55.2605 114.401 55.0724 114.193 54.9177C113.986 54.7631 113.754 54.6464 113.498 54.5676C113.242 54.4889 112.971 54.4493 112.684 54.4493C112.166 54.4493 111.703 54.5793 111.295 54.839C110.887 55.0986 110.566 55.4794 110.33 55.9813C110.095 56.4832 109.977 57.0957 109.977 57.8197C109.977 58.549 110.095 59.1648 110.33 59.6667C110.566 60.1686 110.888 60.5481 111.297 60.8046C111.707 61.0614 112.168 61.1898 112.679 61.1898C112.963 61.1898 113.232 61.151 113.489 61.0735C113.744 60.9964 113.976 60.8817 114.184 60.7299C114.391 60.578 114.568 60.3923 114.712 60.1718C114.857 59.9513 114.957 59.6986 115.013 59.4127L116.381 59.4171C116.308 59.8577 116.167 60.2627 115.958 60.6317C115.749 61.0008 115.481 61.3186 115.156 61.5859C114.829 61.8528 114.457 62.0591 114.039 62.2049C113.621 62.3511 113.164 62.4237 112.67 62.4237C111.892 62.4237 111.199 62.2392 110.591 61.8702C109.982 61.5011 109.504 60.9725 109.154 60.2837C108.804 59.5952 108.63 58.7739 108.63 57.8197C108.63 56.8628 108.806 56.0406 109.156 55.3534C109.507 54.6661 109.987 54.138 110.595 53.7689C111.204 53.3999 111.895 53.2153 112.67 53.2153C113.147 53.2153 113.592 53.2832 114.006 53.4188C114.42 53.5545 114.792 53.7532 115.123 54.014C115.453 54.2753 115.727 54.5935 115.943 54.9682C116.16 55.3425 116.306 55.7709 116.382 56.2522Z" fill="black" style="fill:black;fill-opacity:1;"/>
</g>
<defs>
<clipPath id="clip0_2080_3168">
<rect width="140" height="65" fill="white" style="fill:white;fill-opacity:1;"/>
</clipPath>
</defs>
</svg>
