<?xml version="1.0" encoding="utf-8"?>
<!-- Generator: Adobe Illustrator 28.3.0, SVG Export Plug-In . SVG Version: 6.00 Build 0)  -->
<svg version="1.1" id="Camada_1" xmlns="http://www.w3.org/2000/svg" xmlns:xlink="http://www.w3.org/1999/xlink" x="0px" y="0px"
	 viewBox="0 0 3425.38 1609.75" style="enable-background:new 0 0 3425.38 1609.75;" xml:space="preserve">
<style type="text/css">
	.st0{fill:#FFFFFF;}
	.st1{fill:#E0FE71;}
	.st2{fill:#E0E0E0;}
</style>
<g>
	<g>
		<g>
			
				<rect x="0" y="0" transform="matrix(-4.488961e-11 1 -1 -4.488961e-11 1609.7489 3.607681e-08)" class="st1" width="1609.75" height="1609.75"/>
		</g>
		<g>
			<polygon class="st0" points="192.8,505.91 192.8,1404.14 1091.04,1404.14 1416.95,414.46 1416.95,205.61 522.32,205.61 			"/>
			<path d="M1091.04,1415.15H192.8c-6.08,0-11.01-4.93-11.01-11.01V505.91c0-3.1,1.3-6.05,3.59-8.14l329.52-300.3
				c2.03-1.85,4.67-2.87,7.41-2.87h894.62c6.08,0,11.01,4.93,11.01,11.01v208.85c0,1.17-0.19,2.33-0.55,3.44l-325.91,989.68
				C1100,1412.1,1095.79,1415.15,1091.04,1415.15z M203.81,1393.13h879.26l322.87-980.44V216.62H526.59L203.81,510.77V1393.13z"/>
		</g>
		<g>
			<path d="M1416.95,425.46H522.32c-6.08,0-11.01-4.93-11.01-11.01V205.61c0-6.08,4.93-11.01,11.01-11.01h894.62
				c6.08,0,11.01,4.93,11.01,11.01v208.85C1427.95,420.54,1423.03,425.46,1416.95,425.46z M533.33,403.45h872.61V216.62H533.33
				V403.45z"/>
		</g>
		<g>
			<path d="M1091.04,1415.15H192.8c-6.08,0-11.01-4.93-11.01-11.01V505.91c0-6.08,4.93-11.01,11.01-11.01h898.24
				c6.08,0,11.01,4.93,11.01,11.01v898.23C1102.04,1410.22,1097.12,1415.15,1091.04,1415.15z M203.81,1393.13h876.22V516.91H203.81
				V1393.13z"/>
		</g>
		<g>
			<path d="M1091.04,516.91c-2.97,0-5.93-1.19-8.1-3.55c-4.12-4.47-3.83-11.44,0.63-15.55l325.91-300.3
				c4.48-4.12,11.44-3.83,15.55,0.63c4.12,4.47,3.83,11.44-0.63,15.55L1098.5,514C1096.38,515.95,1093.71,516.91,1091.04,516.91z"/>
		</g>
		<g>
			<path d="M192.8,1415.15c-1.15,0-2.32-0.18-3.48-0.57c-5.77-1.92-8.89-8.15-6.97-13.92l329.52-989.68
				c1.92-5.76,8.14-8.89,13.92-6.97c5.77,1.92,8.89,8.15,6.97,13.92l-329.52,989.68C201.71,1412.23,197.41,1415.15,192.8,1415.15z"
				/>
		</g>
	</g>
	<g>
		<path d="M1885.83,560.37V349.09h132.47v27.44h-100.59v64.38h93.68v27.34h-93.68v64.69h101.83v27.44H1885.83z"/>
		<path d="M2177.28,440.6l-27.96,4.95c-1.17-3.58-3.01-6.98-5.52-10.21c-2.51-3.23-5.9-5.88-10.16-7.94
			c-4.27-2.06-9.59-3.09-15.99-3.09c-8.74,0-16.03,1.94-21.87,5.83c-5.85,3.89-8.77,8.89-8.77,15.01c0,5.3,1.96,9.56,5.88,12.79
			c3.92,3.23,10.25,5.88,18.98,7.94l25.17,5.78c14.58,3.37,25.45,8.56,32.6,15.58c7.15,7.02,10.73,16.13,10.73,27.34
			c0,9.49-2.73,17.93-8.2,25.33c-5.47,7.39-13.07,13.19-22.8,17.38c-9.73,4.19-20.99,6.29-33.79,6.29c-17.74,0-32.22-3.8-43.43-11.4
			c-11.21-7.6-18.09-18.42-20.63-32.45l29.82-4.54c1.86,7.77,5.67,13.64,11.45,17.59c5.78,3.96,13.31,5.93,22.59,5.93
			c10.11,0,18.19-2.12,24.24-6.35c6.05-4.23,9.08-9.4,9.08-15.53c0-4.95-1.84-9.11-5.52-12.48c-3.68-3.37-9.3-5.91-16.87-7.63
			l-26.82-5.88c-14.79-3.37-25.71-8.73-32.76-16.09c-7.05-7.36-10.57-16.68-10.57-27.96c0-9.35,2.61-17.54,7.84-24.55
			c5.23-7.02,12.45-12.5,21.67-16.46c9.22-3.95,19.77-5.93,31.67-5.93c17.13,0,30.61,3.7,40.44,11.09
			C2167.61,418.33,2174.11,428.22,2177.28,440.6z"/>
		<path d="M2280.96,563.57c-15.34,0-28.53-3.49-39.56-10.47c-11.04-6.98-19.52-16.63-25.43-28.94c-5.92-12.31-8.87-26.41-8.87-42.3
			c0-16.09,3.03-30.31,9.08-42.66c6.05-12.34,14.58-21.99,25.59-28.94c11-6.95,23.97-10.42,38.89-10.42
			c12.03,0,22.76,2.22,32.19,6.65c9.42,4.44,17.04,10.64,22.85,18.62c5.81,7.98,9.27,17.3,10.37,27.96h-30.02
			c-1.65-7.43-5.42-13.82-11.3-19.19c-5.88-5.36-13.74-8.05-23.57-8.05c-8.6,0-16.11,2.25-22.54,6.76
			c-6.43,4.51-11.44,10.9-15.01,19.19c-3.58,8.29-5.36,18.07-5.36,29.35c0,11.55,1.75,21.53,5.26,29.92
			c3.51,8.39,8.48,14.89,14.91,19.5c6.43,4.61,14.01,6.91,22.75,6.91c5.85,0,11.16-1.08,15.94-3.25c4.78-2.17,8.8-5.28,12.07-9.34
			c3.27-4.06,5.55-8.94,6.86-14.65h30.02c-1.1,10.25-4.44,19.4-10.01,27.44c-5.57,8.05-13.02,14.38-22.34,18.98
			C2304.39,561.27,2293.48,563.57,2280.96,563.57z"/>
		<path d="M2379.17,560.37V401.91h29.82v25.17h1.65c2.89-8.53,8-15.25,15.32-20.17c7.32-4.92,15.63-7.38,24.92-7.38
			c1.92,0,4.21,0.07,6.86,0.21c2.65,0.14,4.73,0.31,6.24,0.52v29.51c-1.24-0.34-3.44-0.74-6.6-1.19c-3.16-0.45-6.33-0.67-9.49-0.67
			c-7.29,0-13.77,1.53-19.45,4.59c-5.67,3.06-10.16,7.29-13.46,12.69c-3.3,5.4-4.95,11.54-4.95,18.42v96.77H2379.17z"/>
		<path d="M2506.38,377.46c-5.36,0-9.96-1.81-13.77-5.42c-3.82-3.61-5.73-7.93-5.73-12.95c0-5.09,1.91-9.44,5.73-13.05
			c3.82-3.61,8.41-5.42,13.77-5.42s9.96,1.81,13.77,5.42c3.82,3.61,5.73,7.96,5.73,13.05c0,5.02-1.91,9.34-5.73,12.95
			C2516.33,375.65,2511.74,377.46,2506.38,377.46z M2490.8,560.37V401.91h30.85v158.46H2490.8z"/>
		<path d="M2637.09,401.91v24.76h-86.56v-24.76H2637.09z M2573.75,363.94h30.85v149.9c0,5.98,0.89,10.47,2.68,13.46
			c1.79,2.99,4.11,5.02,6.96,6.09c2.85,1.07,5.97,1.6,9.34,1.6c2.48,0,4.64-0.17,6.5-0.52c1.86-0.34,3.3-0.62,4.33-0.83l5.57,25.48
			c-1.79,0.69-4.33,1.39-7.63,2.12s-7.43,1.12-12.38,1.19c-8.12,0.14-15.68-1.31-22.7-4.33c-7.02-3.03-12.69-7.7-17.02-14.03
			c-4.33-6.33-6.5-14.27-6.5-23.83V363.94z"/>
		<path d="M2736.23,563.57c-14.86,0-27.82-3.4-38.89-10.21c-11.07-6.81-19.67-16.33-25.79-28.58c-6.12-12.24-9.18-26.55-9.18-42.92
			c0-16.44,3.06-30.81,9.18-43.12c6.12-12.31,14.72-21.87,25.79-28.68c11.07-6.81,24.04-10.21,38.89-10.21
			c14.86,0,27.82,3.4,38.89,10.21c11.07,6.81,19.67,16.37,25.79,28.68c6.12,12.31,9.18,26.69,9.18,43.12
			c0,16.37-3.06,30.68-9.18,42.92c-6.12,12.24-14.72,21.77-25.79,28.58C2764.05,560.17,2751.09,563.57,2736.23,563.57z
			 M2736.34,537.68c9.63,0,17.61-2.54,23.93-7.63c6.33-5.09,11.02-11.86,14.08-20.32c3.06-8.46,4.59-17.78,4.59-27.96
			c0-10.11-1.53-19.41-4.59-27.91c-3.06-8.49-7.76-15.32-14.08-20.48c-6.33-5.16-14.31-7.74-23.93-7.74
			c-9.7,0-17.73,2.58-24.09,7.74c-6.36,5.16-11.07,11.99-14.13,20.48c-3.06,8.5-4.59,17.8-4.59,27.91c0,10.18,1.53,19.5,4.59,27.96
			c3.06,8.46,7.77,15.23,14.13,20.32C2718.61,535.13,2726.64,537.68,2736.34,537.68z M2723.54,380.76l24.14-47.56h32.5l-31.98,47.56
			H2723.54z"/>
		<path d="M2844.45,560.37V401.91h29.82v25.17h1.65c2.89-8.53,8-15.25,15.32-20.17c7.32-4.92,15.63-7.38,24.92-7.38
			c1.92,0,4.21,0.07,6.86,0.21c2.65,0.14,4.73,0.31,6.24,0.52v29.51c-1.24-0.34-3.44-0.74-6.6-1.19c-3.16-0.45-6.33-0.67-9.49-0.67
			c-7.29,0-13.77,1.53-19.45,4.59c-5.67,3.06-10.16,7.29-13.46,12.69c-3.3,5.4-4.95,11.54-4.95,18.42v96.77H2844.45z"/>
		<path d="M2971.66,377.46c-5.36,0-9.96-1.81-13.77-5.42s-5.73-7.93-5.73-12.95c0-5.09,1.91-9.44,5.73-13.05s8.41-5.42,13.77-5.42
			s9.96,1.81,13.77,5.42s5.73,7.96,5.73,13.05c0,5.02-1.91,9.34-5.73,12.95S2977.02,377.46,2971.66,377.46z M2956.08,560.37V401.91
			h30.85v158.46H2956.08z"/>
		<path d="M3095.15,563.57c-14.86,0-27.82-3.4-38.89-10.21c-11.07-6.81-19.67-16.33-25.79-28.58c-6.12-12.24-9.18-26.55-9.18-42.92
			c0-16.44,3.06-30.81,9.18-43.12c6.12-12.31,14.72-21.87,25.79-28.68c11.07-6.81,24.04-10.21,38.89-10.21
			c14.86,0,27.82,3.4,38.89,10.21c11.07,6.81,19.67,16.37,25.79,28.68c6.12,12.31,9.18,26.69,9.18,43.12
			c0,16.37-3.06,30.68-9.18,42.92c-6.12,12.24-14.72,21.77-25.79,28.58C3122.97,560.17,3110.01,563.57,3095.15,563.57z
			 M3095.25,537.68c9.63,0,17.61-2.54,23.93-7.63c6.33-5.09,11.02-11.86,14.08-20.32c3.06-8.46,4.59-17.78,4.59-27.96
			c0-10.11-1.53-19.41-4.59-27.91c-3.06-8.49-7.76-15.32-14.08-20.48c-6.33-5.16-14.31-7.74-23.93-7.74
			c-9.7,0-17.73,2.58-24.09,7.74c-6.36,5.16-11.07,11.99-14.13,20.48c-3.06,8.5-4.59,17.8-4.59,27.91c0,10.18,1.53,19.5,4.59,27.96
			c3.06,8.46,7.77,15.23,14.13,20.32C3077.52,535.13,3085.55,537.68,3095.25,537.68z"/>
		<path d="M1942.68,912.09c-12.79,0-24.19-3.28-34.2-9.85c-10.01-6.57-17.85-15.96-23.52-28.16c-5.67-12.21-8.51-26.88-8.51-44
			s2.87-31.78,8.61-43.95c5.74-12.17,13.63-21.49,23.68-27.96c10.04-6.46,21.42-9.7,34.15-9.7c9.83,0,17.76,1.63,23.78,4.9
			c6.02,3.27,10.69,7.07,14.03,11.4c3.34,4.33,5.93,8.15,7.79,11.45h1.86v-78.51h30.85v211.29h-30.12v-24.66h-2.58
			c-1.86,3.37-4.52,7.22-8,11.55c-3.47,4.33-8.24,8.12-14.29,11.35C1960.15,910.47,1952.3,912.09,1942.68,912.09z M1949.49,885.78
			c8.87,0,16.39-2.36,22.54-7.07c6.15-4.71,10.83-11.26,14.03-19.65c3.2-8.39,4.8-18.16,4.8-29.3c0-11-1.58-20.63-4.75-28.89
			c-3.16-8.25-7.81-14.68-13.93-19.29c-6.12-4.61-13.69-6.91-22.7-6.91c-9.29,0-17.02,2.41-23.21,7.22
			c-6.19,4.81-10.85,11.38-13.98,19.71c-3.13,8.32-4.69,17.71-4.69,28.16c0,10.59,1.58,20.12,4.75,28.58
			c3.16,8.46,7.86,15.15,14.08,20.07C1932.65,883.32,1940.34,885.78,1949.49,885.78z"/>
		<path d="M2133.43,912.19c-15.61,0-29.04-3.35-40.29-10.06c-11.25-6.71-19.91-16.16-26-28.37c-6.09-12.21-9.13-26.53-9.13-42.97
			c0-16.23,3.04-30.54,9.13-42.92c6.09-12.38,14.61-22.04,25.59-28.99c10.97-6.95,23.81-10.42,38.53-10.42
			c8.94,0,17.61,1.48,26,4.44c8.39,2.96,15.92,7.6,22.59,13.93c6.67,6.33,11.93,14.53,15.78,24.61c3.85,10.08,5.78,22.3,5.78,36.68
			v10.94h-125.97v-23.11h95.74c0-8.11-1.65-15.32-4.95-21.61c-3.3-6.29-7.93-11.26-13.88-14.91c-5.95-3.64-12.91-5.47-20.89-5.47
			c-8.67,0-16.22,2.11-22.65,6.34c-6.43,4.23-11.38,9.73-14.86,16.51c-3.47,6.78-5.21,14.12-5.21,22.03v18.05
			c0,10.59,1.87,19.6,5.62,27.03c3.75,7.43,8.99,13.09,15.73,16.97c6.74,3.89,14.61,5.83,23.63,5.83c5.85,0,11.18-0.84,15.99-2.53
			c4.81-1.68,8.98-4.21,12.48-7.58c3.51-3.37,6.19-7.53,8.05-12.48l29.2,5.26c-2.34,8.6-6.52,16.11-12.53,22.54
			c-6.02,6.43-13.55,11.42-22.59,14.96C2155.28,910.42,2144.99,912.19,2133.43,912.19z"/>
		<path d="M2315.21,908.99V697.71h75.31c16.44,0,30.06,2.99,40.85,8.98c10.8,5.98,18.88,14.15,24.24,24.5
			c5.36,10.35,8.05,21.99,8.05,34.92c0,13-2.7,24.67-8.1,35.03c-5.4,10.35-13.51,18.54-24.35,24.55
			c-10.83,6.02-24.43,9.03-40.8,9.03h-51.79v-27.03h48.9c10.38,0,18.81-1.81,25.28-5.42c6.46-3.61,11.21-8.54,14.24-14.8
			c3.03-6.26,4.54-13.38,4.54-21.36c0-7.98-1.51-15.06-4.54-21.25c-3.03-6.19-7.79-11.04-14.29-14.55s-15.05-5.26-25.64-5.26h-40.03
			v183.95H2315.21z"/>
		<path d="M2498.43,908.99V750.53h29.82v25.17h1.65c2.89-8.53,8-15.25,15.32-20.17c7.32-4.92,15.63-7.38,24.91-7.38
			c1.92,0,4.21,0.07,6.86,0.21c2.65,0.14,4.73,0.31,6.24,0.52v29.51c-1.24-0.34-3.44-0.74-6.6-1.19c-3.16-0.45-6.33-0.67-9.49-0.67
			c-7.29,0-13.77,1.53-19.45,4.59c-5.67,3.06-10.16,7.29-13.46,12.69c-3.3,5.4-4.95,11.54-4.95,18.42v96.77H2498.43z"/>
		<path d="M2671.03,912.19c-14.86,0-27.82-3.4-38.89-10.21c-11.07-6.81-19.67-16.33-25.79-28.58c-6.12-12.24-9.18-26.55-9.18-42.92
			c0-16.44,3.06-30.81,9.18-43.12c6.12-12.31,14.72-21.87,25.79-28.68c11.07-6.81,24.04-10.21,38.89-10.21
			c14.86,0,27.82,3.4,38.89,10.21c11.07,6.81,19.67,16.37,25.79,28.68c6.12,12.31,9.18,26.69,9.18,43.12
			c0,16.37-3.06,30.68-9.18,42.92c-6.12,12.24-14.72,21.77-25.79,28.58C2698.85,908.79,2685.89,912.19,2671.03,912.19z
			 M2671.13,886.3c9.63,0,17.61-2.54,23.93-7.63c6.33-5.09,11.02-11.86,14.08-20.32c3.06-8.46,4.59-17.78,4.59-27.96
			c0-10.11-1.53-19.41-4.59-27.91c-3.06-8.49-7.76-15.32-14.08-20.48c-6.33-5.16-14.31-7.74-23.93-7.74
			c-9.7,0-17.73,2.58-24.09,7.74c-6.36,5.16-11.07,11.99-14.13,20.48c-3.06,8.5-4.59,17.8-4.59,27.91c0,10.18,1.53,19.5,4.59,27.96
			c3.06,8.46,7.77,15.23,14.13,20.32C2653.4,883.75,2661.44,886.3,2671.13,886.3z"/>
		<path d="M2779.25,750.53h30.85v168.78c0,10.59-1.91,19.53-5.73,26.82c-3.82,7.29-9.46,12.83-16.92,16.61
			c-7.46,3.78-16.66,5.67-27.6,5.67c-1.1,0-2.15,0-3.15,0c-1,0-2.05-0.04-3.15-0.1V941.8c0.96,0,1.81,0,2.53,0s1.53,0,2.42,0
			c7.29,0,12.57-1.94,15.84-5.83c3.27-3.89,4.9-9.51,4.9-16.87V750.53z M2794.52,726.08c-5.36,0-9.96-1.81-13.77-5.42
			c-3.82-3.61-5.73-7.93-5.73-12.95c0-5.09,1.91-9.44,5.73-13.05c3.82-3.61,8.41-5.42,13.77-5.42s9.96,1.81,13.77,5.42
			c3.82,3.61,5.73,7.96,5.73,13.05c0,5.02-1.91,9.34-5.73,12.95C2804.47,724.27,2799.88,726.08,2794.52,726.08z"/>
		<path d="M2919.87,912.19c-15.61,0-29.04-3.35-40.29-10.06c-11.25-6.71-19.91-16.16-26-28.37c-6.09-12.21-9.13-26.53-9.13-42.97
			c0-16.23,3.04-30.54,9.13-42.92c6.09-12.38,14.61-22.04,25.59-28.99c10.97-6.95,23.81-10.42,38.53-10.42
			c8.94,0,17.61,1.48,26,4.44c8.39,2.96,15.92,7.6,22.59,13.93c6.67,6.33,11.93,14.53,15.78,24.61c3.85,10.08,5.78,22.3,5.78,36.68
			v10.94h-125.97v-23.11h95.74c0-8.11-1.65-15.32-4.95-21.61c-3.3-6.29-7.93-11.26-13.88-14.91c-5.95-3.64-12.91-5.47-20.89-5.47
			c-8.67,0-16.22,2.11-22.65,6.34c-6.43,4.23-11.38,9.73-14.86,16.51c-3.47,6.78-5.21,14.12-5.21,22.03v18.05
			c0,10.59,1.87,19.6,5.62,27.03c3.75,7.43,8.99,13.09,15.73,16.97c6.74,3.89,14.61,5.83,23.63,5.83c5.85,0,11.18-0.84,15.99-2.53
			c4.81-1.68,8.98-4.21,12.48-7.58c3.51-3.37,6.19-7.53,8.05-12.48l29.2,5.26c-2.34,8.6-6.52,16.11-12.53,22.54
			c-6.02,6.43-13.55,11.42-22.59,14.96C2941.72,910.42,2931.42,912.19,2919.87,912.19z"/>
		<path d="M3096.18,750.53v24.76h-86.56v-24.76H3096.18z M3032.83,712.56h30.85v149.9c0,5.98,0.89,10.47,2.68,13.46
			c1.79,2.99,4.11,5.02,6.96,6.09c2.85,1.07,5.97,1.6,9.34,1.6c2.48,0,4.64-0.17,6.5-0.52c1.86-0.34,3.3-0.62,4.33-0.83l5.57,25.48
			c-1.79,0.69-4.33,1.39-7.63,2.11c-3.3,0.72-7.43,1.12-12.38,1.19c-8.12,0.14-15.68-1.31-22.7-4.33s-12.69-7.7-17.02-14.03
			c-4.33-6.33-6.5-14.27-6.5-23.83V712.56z"/>
		<path d="M3195.32,912.19c-14.86,0-27.82-3.4-38.89-10.21c-11.07-6.81-19.67-16.33-25.79-28.58c-6.12-12.24-9.18-26.55-9.18-42.92
			c0-16.44,3.06-30.81,9.18-43.12c6.12-12.31,14.72-21.87,25.79-28.68c11.07-6.81,24.04-10.21,38.89-10.21
			c14.86,0,27.82,3.4,38.89,10.21c11.07,6.81,19.67,16.37,25.79,28.68c6.12,12.31,9.18,26.69,9.18,43.12
			c0,16.37-3.06,30.68-9.18,42.92c-6.12,12.24-14.72,21.77-25.79,28.58C3223.14,908.79,3210.18,912.19,3195.32,912.19z
			 M3195.42,886.3c9.63,0,17.61-2.54,23.93-7.63c6.33-5.09,11.02-11.86,14.08-20.32c3.06-8.46,4.59-17.78,4.59-27.96
			c0-10.11-1.53-19.41-4.59-27.91c-3.06-8.49-7.76-15.32-14.08-20.48c-6.33-5.16-14.31-7.74-23.93-7.74
			c-9.7,0-17.73,2.58-24.09,7.74c-6.36,5.16-11.07,11.99-14.13,20.48c-3.06,8.5-4.59,17.8-4.59,27.91c0,10.18,1.53,19.5,4.59,27.96
			c3.06,8.46,7.77,15.23,14.13,20.32C3177.7,883.75,3185.73,886.3,3195.42,886.3z"/>
		<path d="M3422.29,789.22l-27.96,4.95c-1.17-3.58-3.01-6.98-5.52-10.21c-2.51-3.23-5.9-5.88-10.16-7.94
			c-4.27-2.06-9.59-3.1-15.99-3.1c-8.74,0-16.03,1.94-21.87,5.83c-5.85,3.89-8.77,8.89-8.77,15.01c0,5.3,1.96,9.56,5.88,12.79
			c3.92,3.23,10.25,5.88,18.98,7.94l25.17,5.78c14.58,3.37,25.45,8.56,32.6,15.58c7.15,7.02,10.73,16.13,10.73,27.34
			c0,9.49-2.73,17.94-8.2,25.33c-5.47,7.39-13.07,13.19-22.8,17.38c-9.73,4.19-20.99,6.29-33.79,6.29c-17.74,0-32.22-3.8-43.43-11.4
			c-11.21-7.6-18.09-18.42-20.63-32.45l29.82-4.54c1.86,7.77,5.67,13.64,11.45,17.59c5.78,3.96,13.31,5.93,22.59,5.93
			c10.11,0,18.19-2.11,24.24-6.34c6.05-4.23,9.08-9.4,9.08-15.53c0-4.95-1.84-9.11-5.52-12.48c-3.68-3.37-9.3-5.91-16.87-7.63
			l-26.82-5.88c-14.79-3.37-25.71-8.73-32.76-16.09c-7.05-7.36-10.57-16.68-10.57-27.96c0-9.35,2.61-17.54,7.84-24.55
			c5.23-7.02,12.45-12.5,21.67-16.46c9.22-3.95,19.77-5.93,31.67-5.93c17.13,0,30.61,3.7,40.44,11.09
			C3412.62,766.95,3419.12,776.84,3422.29,789.22z"/>
		<path d="M1951.65,1260.82c-15.61,0-29.04-3.35-40.29-10.06c-11.25-6.71-19.91-16.16-26-28.37c-6.09-12.21-9.13-26.53-9.13-42.97
			c0-16.23,3.04-30.54,9.13-42.92c6.09-12.38,14.61-22.04,25.59-28.99c10.97-6.95,23.81-10.42,38.53-10.42
			c8.94,0,17.61,1.48,26,4.44c8.39,2.96,15.92,7.6,22.59,13.93c6.67,6.33,11.93,14.53,15.78,24.61c3.85,10.08,5.78,22.3,5.78,36.68
			v10.94h-125.97v-23.11h95.74c0-8.12-1.65-15.32-4.95-21.61c-3.3-6.29-7.93-11.26-13.88-14.91c-5.95-3.64-12.91-5.47-20.89-5.47
			c-8.67,0-16.22,2.11-22.65,6.34c-6.43,4.23-11.38,9.73-14.86,16.51c-3.47,6.77-5.21,14.12-5.21,22.03v18.05
			c0,10.59,1.87,19.6,5.62,27.03c3.75,7.43,8.99,13.09,15.73,16.97c6.74,3.89,14.61,5.83,23.63,5.83c5.85,0,11.18-0.84,15.99-2.53
			c4.81-1.68,8.98-4.21,12.48-7.58c3.51-3.37,6.19-7.53,8.05-12.48l29.2,5.26c-2.34,8.6-6.52,16.11-12.53,22.54
			c-6.02,6.43-13.55,11.42-22.59,14.96C1973.51,1259.04,1963.21,1260.82,1951.65,1260.82z"/>
		<path d="M2133.43,1257.62v-211.29h75.31c16.44,0,30.06,2.99,40.85,8.98c10.8,5.98,18.88,14.15,24.24,24.5
			c5.36,10.35,8.05,21.99,8.05,34.92c0,13-2.7,24.67-8.1,35.03c-5.4,10.35-13.51,18.54-24.35,24.55
			c-10.83,6.02-24.43,9.03-40.8,9.03h-51.79v-27.03h48.9c10.38,0,18.81-1.81,25.28-5.42c6.46-3.61,11.21-8.54,14.24-14.8
			c3.03-6.26,4.54-13.38,4.54-21.36c0-7.98-1.51-15.06-4.54-21.25c-3.03-6.19-7.79-11.04-14.29-14.55
			c-6.5-3.51-15.05-5.26-25.64-5.26h-40.03v183.95H2133.43z"/>
		<path d="M2361.33,1261.13c-10.04,0-19.12-1.88-27.24-5.62c-8.12-3.75-14.53-9.2-19.24-16.35c-4.71-7.15-7.07-15.92-7.07-26.31
			c0-8.94,1.72-16.3,5.16-22.08c3.44-5.78,8.08-10.35,13.93-13.72c5.85-3.37,12.38-5.91,19.6-7.63c7.22-1.72,14.58-3.03,22.08-3.92
			c9.49-1.1,17.19-2.01,23.11-2.73c5.91-0.72,10.21-1.91,12.9-3.56c2.68-1.65,4.02-4.33,4.02-8.05v-0.72
			c0-9.01-2.53-15.99-7.58-20.94s-12.57-7.43-22.54-7.43c-10.39,0-18.55,2.29-24.5,6.86c-5.95,4.57-10.06,9.65-12.33,15.22
			l-28.99-6.6c3.44-9.63,8.48-17.42,15.11-23.37c6.64-5.95,14.29-10.28,22.95-13c8.67-2.72,17.78-4.08,27.34-4.08
			c6.33,0,13.05,0.74,20.17,2.22c7.12,1.48,13.79,4.18,20.01,8.1c6.22,3.92,11.33,9.51,15.32,16.76c3.99,7.26,5.98,16.66,5.98,28.22
			v105.23h-30.12v-21.67h-1.24c-2,3.99-4.99,7.91-8.98,11.76c-3.99,3.85-9.11,7.05-15.37,9.59
			C2377.56,1259.85,2370.06,1261.13,2361.33,1261.13z M2368.03,1236.37c8.53,0,15.84-1.68,21.92-5.06
			c6.09-3.37,10.73-7.79,13.93-13.26c3.2-5.47,4.8-11.33,4.8-17.59v-20.43c-1.1,1.1-3.22,2.12-6.34,3.04
			c-3.13,0.93-6.69,1.72-10.68,2.37c-3.99,0.65-7.88,1.24-11.66,1.75c-3.78,0.52-6.95,0.95-9.49,1.29
			c-5.98,0.76-11.44,2.03-16.35,3.82c-4.92,1.79-8.84,4.35-11.76,7.69c-2.92,3.34-4.38,7.76-4.38,13.26c0,7.63,2.82,13.4,8.46,17.28
			C2352.11,1234.42,2359.3,1236.37,2368.03,1236.37z"/>
		<path d="M2480.59,1257.62v-158.46h29.82v25.17h1.65c2.89-8.53,8-15.25,15.32-20.17c7.32-4.92,15.63-7.38,24.91-7.38
			c1.92,0,4.21,0.07,6.86,0.21c2.65,0.14,4.73,0.31,6.24,0.52v29.51c-1.24-0.34-3.44-0.74-6.6-1.19c-3.16-0.45-6.33-0.67-9.49-0.67
			c-7.29,0-13.77,1.53-19.45,4.59c-5.67,3.06-10.16,7.29-13.46,12.69c-3.3,5.4-4.95,11.54-4.95,18.42v96.77H2480.59z"/>
		<path d="M2653.19,1260.82c-15.34,0-28.53-3.49-39.56-10.47c-11.04-6.98-19.52-16.63-25.43-28.94c-5.92-12.31-8.87-26.41-8.87-42.3
			c0-16.09,3.03-30.31,9.08-42.66c6.05-12.34,14.58-21.99,25.59-28.94c11-6.95,23.97-10.42,38.89-10.42
			c12.03,0,22.76,2.22,32.19,6.65c9.42,4.44,17.04,10.64,22.85,18.62c5.81,7.98,9.27,17.3,10.37,27.96h-30.02
			c-1.65-7.43-5.42-13.82-11.3-19.19c-5.88-5.36-13.74-8.05-23.57-8.05c-8.6,0-16.11,2.25-22.54,6.76
			c-6.43,4.51-11.44,10.9-15.01,19.19c-3.58,8.29-5.36,18.07-5.36,29.35c0,11.55,1.75,21.53,5.26,29.92
			c3.51,8.39,8.48,14.89,14.91,19.5c6.43,4.61,14.01,6.91,22.75,6.91c5.85,0,11.16-1.08,15.94-3.25c4.78-2.17,8.8-5.28,12.07-9.34
			c3.27-4.06,5.55-8.94,6.86-14.65h30.02c-1.1,10.25-4.44,19.4-10.01,27.44s-13.02,14.38-22.34,18.98
			C2676.62,1258.51,2665.7,1260.82,2653.19,1260.82z"/>
		<path d="M2819.7,1260.82c-15.61,0-29.04-3.35-40.29-10.06c-11.25-6.71-19.91-16.16-26-28.37c-6.09-12.21-9.13-26.53-9.13-42.97
			c0-16.23,3.04-30.54,9.13-42.92c6.09-12.38,14.61-22.04,25.59-28.99c10.97-6.95,23.81-10.42,38.53-10.42
			c8.94,0,17.61,1.48,26,4.44c8.39,2.96,15.92,7.6,22.59,13.93c6.67,6.33,11.93,14.53,15.78,24.61c3.85,10.08,5.78,22.3,5.78,36.68
			v10.94h-125.97v-23.11h95.74c0-8.12-1.65-15.32-4.95-21.61c-3.3-6.29-7.93-11.26-13.88-14.91c-5.95-3.64-12.91-5.47-20.89-5.47
			c-8.67,0-16.22,2.11-22.65,6.34c-6.43,4.23-11.38,9.73-14.86,16.51c-3.47,6.77-5.21,14.12-5.21,22.03v18.05
			c0,10.59,1.87,19.6,5.62,27.03c3.75,7.43,8.99,13.09,15.73,16.97c6.74,3.89,14.61,5.83,23.63,5.83c5.85,0,11.18-0.84,15.99-2.53
			c4.81-1.68,8.98-4.21,12.48-7.58c3.51-3.37,6.19-7.53,8.05-12.48l29.2,5.26c-2.34,8.6-6.52,16.11-12.53,22.54
			c-6.02,6.43-13.55,11.42-22.59,14.96C2841.55,1259.04,2831.25,1260.82,2819.7,1260.82z"/>
		<path d="M2922.04,1257.62v-158.46h29.82v25.17h1.65c2.89-8.53,8-15.25,15.32-20.17c7.32-4.92,15.63-7.38,24.92-7.38
			c1.92,0,4.21,0.07,6.86,0.21c2.65,0.14,4.73,0.31,6.24,0.52v29.51c-1.24-0.34-3.44-0.74-6.6-1.19c-3.16-0.45-6.33-0.67-9.49-0.67
			c-7.29,0-13.77,1.53-19.45,4.59c-5.67,3.06-10.16,7.29-13.46,12.69c-3.3,5.4-4.95,11.54-4.95,18.42v96.77H2922.04z"/>
		<path d="M3049.24,1074.7c-5.36,0-9.96-1.81-13.77-5.42s-5.73-7.93-5.73-12.95c0-5.09,1.91-9.44,5.73-13.05s8.41-5.42,13.77-5.42
			s9.96,1.81,13.77,5.42s5.73,7.96,5.73,13.05c0,5.02-1.91,9.34-5.73,12.95S3054.61,1074.7,3049.24,1074.7z M3033.67,1257.62
			v-158.46h30.85v158.46H3033.67z"/>
		<path d="M3152.1,1261.13c-10.04,0-19.12-1.88-27.24-5.62c-8.12-3.75-14.53-9.2-19.24-16.35c-4.71-7.15-7.07-15.92-7.07-26.31
			c0-8.94,1.72-16.3,5.16-22.08c3.44-5.78,8.08-10.35,13.93-13.72c5.84-3.37,12.38-5.91,19.6-7.63c7.22-1.72,14.58-3.03,22.08-3.92
			c9.49-1.1,17.19-2.01,23.11-2.73c5.91-0.72,10.21-1.91,12.9-3.56c2.68-1.65,4.02-4.33,4.02-8.05v-0.72
			c0-9.01-2.53-15.99-7.58-20.94s-12.57-7.43-22.54-7.43c-10.39,0-18.55,2.29-24.5,6.86c-5.95,4.57-10.06,9.65-12.33,15.22
			l-28.99-6.6c3.44-9.63,8.48-17.42,15.11-23.37c6.64-5.95,14.29-10.28,22.95-13c8.67-2.72,17.78-4.08,27.34-4.08
			c6.33,0,13.05,0.74,20.17,2.22c7.12,1.48,13.79,4.18,20.01,8.1c6.22,3.92,11.33,9.51,15.32,16.76c3.99,7.26,5.98,16.66,5.98,28.22
			v105.23h-30.12v-21.67h-1.24c-2,3.99-4.99,7.91-8.98,11.76c-3.99,3.85-9.11,7.05-15.37,9.59
			C3168.33,1259.85,3160.84,1261.13,3152.1,1261.13z M3158.81,1236.37c8.53,0,15.84-1.68,21.92-5.06
			c6.09-3.37,10.73-7.79,13.93-13.26c3.2-5.47,4.8-11.33,4.8-17.59v-20.43c-1.1,1.1-3.22,2.12-6.34,3.04
			c-3.13,0.93-6.69,1.72-10.68,2.37c-3.99,0.65-7.88,1.24-11.66,1.75c-3.78,0.52-6.95,0.95-9.49,1.29
			c-5.98,0.76-11.44,2.03-16.35,3.82c-4.92,1.79-8.84,4.35-11.76,7.69c-2.92,3.34-4.38,7.76-4.38,13.26c0,7.63,2.82,13.4,8.46,17.28
			C3142.88,1234.42,3150.07,1236.37,3158.81,1236.37z"/>
		<path d="M3390.11,1137.84l-27.96,4.95c-1.17-3.58-3.01-6.98-5.52-10.21c-2.51-3.23-5.9-5.88-10.16-7.94
			c-4.27-2.06-9.59-3.1-15.99-3.1c-8.74,0-16.03,1.94-21.87,5.83c-5.85,3.89-8.77,8.89-8.77,15.01c0,5.3,1.96,9.56,5.88,12.79
			c3.92,3.23,10.25,5.88,18.98,7.94l25.17,5.78c14.58,3.37,25.45,8.56,32.6,15.58c7.15,7.02,10.73,16.13,10.73,27.34
			c0,9.49-2.73,17.94-8.2,25.33c-5.47,7.39-13.07,13.19-22.8,17.38c-9.73,4.19-20.99,6.29-33.79,6.29c-17.74,0-32.22-3.8-43.43-11.4
			c-11.21-7.6-18.09-18.42-20.63-32.45l29.82-4.54c1.86,7.77,5.67,13.64,11.45,17.59c5.78,3.96,13.31,5.93,22.59,5.93
			c10.11,0,18.19-2.12,24.24-6.34c6.05-4.23,9.08-9.4,9.08-15.53c0-4.95-1.84-9.11-5.52-12.48c-3.68-3.37-9.3-5.91-16.87-7.63
			l-26.82-5.88c-14.79-3.37-25.71-8.73-32.76-16.09c-7.05-7.36-10.57-16.68-10.57-27.96c0-9.35,2.61-17.54,7.84-24.55
			c5.23-7.02,12.45-12.5,21.67-16.46c9.22-3.95,19.77-5.93,31.67-5.93c17.13,0,30.61,3.7,40.44,11.09
			C3380.44,1115.57,3386.94,1125.46,3390.11,1137.84z"/>
		<path d="M1942.68,1609.34c-12.79,0-24.19-3.28-34.2-9.85c-10.01-6.57-17.85-15.96-23.52-28.17c-5.67-12.21-8.51-26.88-8.51-44
			c0-17.13,2.87-31.78,8.61-43.95c5.74-12.17,13.63-21.49,23.68-27.96c10.04-6.46,21.42-9.7,34.15-9.7c9.83,0,17.76,1.63,23.78,4.9
			c6.02,3.27,10.69,7.07,14.03,11.4c3.34,4.33,5.93,8.15,7.79,11.45h1.86v-78.51h30.85v211.29h-30.12v-24.66h-2.58
			c-1.86,3.37-4.52,7.22-8,11.55c-3.47,4.33-8.24,8.12-14.29,11.35C1960.15,1607.72,1952.3,1609.34,1942.68,1609.34z
			 M1949.49,1583.03c8.87,0,16.39-2.36,22.54-7.07c6.15-4.71,10.83-11.26,14.03-19.65c3.2-8.39,4.8-18.16,4.8-29.3
			c0-11-1.58-20.63-4.75-28.89c-3.16-8.25-7.81-14.68-13.93-19.29c-6.12-4.61-13.69-6.91-22.7-6.91c-9.29,0-17.02,2.41-23.21,7.22
			c-6.19,4.81-10.85,11.38-13.98,19.71c-3.13,8.32-4.69,17.71-4.69,28.16c0,10.59,1.58,20.12,4.75,28.58
			c3.16,8.46,7.86,15.15,14.08,20.07C1932.65,1580.57,1940.34,1583.03,1949.49,1583.03z"/>
		<path d="M2111.25,1609.75c-10.04,0-19.12-1.88-27.24-5.62c-8.12-3.75-14.53-9.2-19.24-16.35c-4.71-7.15-7.07-15.92-7.07-26.31
			c0-8.94,1.72-16.3,5.16-22.08c3.44-5.78,8.08-10.35,13.93-13.72c5.84-3.37,12.38-5.91,19.6-7.63c7.22-1.72,14.58-3.03,22.08-3.92
			c9.49-1.1,17.19-2.01,23.11-2.73c5.91-0.72,10.21-1.91,12.9-3.56c2.68-1.65,4.02-4.33,4.02-8.05v-0.72
			c0-9.01-2.53-15.99-7.58-20.94c-5.06-4.95-12.57-7.43-22.54-7.43c-10.39,0-18.55,2.29-24.5,6.86
			c-5.95,4.57-10.06,9.65-12.33,15.22l-28.99-6.6c3.44-9.63,8.48-17.42,15.11-23.37c6.64-5.95,14.29-10.28,22.95-13
			c8.67-2.72,17.78-4.08,27.34-4.08c6.33,0,13.05,0.74,20.17,2.22c7.12,1.48,13.79,4.18,20.01,8.1c6.22,3.92,11.33,9.51,15.32,16.76
			c3.99,7.26,5.98,16.66,5.98,28.22v105.23h-30.12v-21.67h-1.24c-2,3.99-4.99,7.91-8.98,11.76c-3.99,3.85-9.11,7.05-15.37,9.59
			C2127.48,1608.48,2119.98,1609.75,2111.25,1609.75z M2117.96,1584.99c8.53,0,15.84-1.68,21.92-5.06
			c6.09-3.37,10.73-7.79,13.93-13.26c3.2-5.47,4.8-11.33,4.8-17.59v-20.43c-1.1,1.1-3.22,2.12-6.34,3.04
			c-3.13,0.93-6.69,1.72-10.68,2.37c-3.99,0.65-7.88,1.24-11.66,1.75c-3.78,0.52-6.95,0.95-9.49,1.29
			c-5.98,0.76-11.44,2.03-16.35,3.82c-4.92,1.79-8.84,4.35-11.76,7.69c-2.92,3.34-4.38,7.76-4.38,13.26c0,7.63,2.82,13.4,8.46,17.28
			C2102.03,1583.05,2109.22,1584.99,2117.96,1584.99z"/>
		<path d="M2445.82,1394.95h31.98v138.97c0,14.79-3.47,27.87-10.42,39.26c-6.95,11.38-16.71,20.32-29.3,26.82
			s-27.34,9.75-44.26,9.75c-16.85,0-31.57-3.25-44.16-9.75s-22.35-15.44-29.3-26.82c-6.95-11.38-10.42-24.47-10.42-39.26v-138.97
			h31.88v136.39c0,9.56,2.11,18.05,6.34,25.48c4.23,7.43,10.23,13.26,18,17.49c7.77,4.23,16.99,6.34,27.65,6.34
			c10.73,0,20-2.11,27.8-6.34c7.81-4.23,13.79-10.06,17.95-17.49c4.16-7.43,6.24-15.92,6.24-25.48V1394.95z"/>
		<path d="M2524.22,1606.24v-211.29h131.02v27.44h-99.14v64.38h89.76v27.34h-89.76v92.13H2524.22z"/>
		<path d="M2869.94,1463.66h-32.19c-1.24-6.88-3.54-12.93-6.91-18.16c-3.37-5.23-7.5-9.66-12.38-13.31
			c-4.88-3.65-10.33-6.4-16.35-8.25c-6.02-1.86-12.4-2.79-19.14-2.79c-12.17,0-23.06,3.06-32.65,9.18
			c-9.59,6.12-17.16,15.1-22.7,26.93c-5.54,11.83-8.3,26.27-8.3,43.33c0,17.19,2.77,31.71,8.3,43.54
			c5.54,11.83,13.12,20.77,22.75,26.82c9.63,6.05,20.46,9.08,32.5,9.08c6.67,0,13.02-0.91,19.03-2.73
			c6.02-1.82,11.47-4.52,16.35-8.1c4.88-3.58,9.03-7.96,12.43-13.15c3.4-5.19,5.76-11.16,7.07-17.9l32.19,0.1
			c-1.72,10.39-5.04,19.93-9.96,28.63c-4.92,8.7-11.21,16.2-18.88,22.49c-7.67,6.29-16.42,11.16-26.26,14.6
			c-9.84,3.44-20.57,5.16-32.19,5.16c-18.3,0-34.6-4.35-48.9-13.05c-14.31-8.7-25.57-21.17-33.79-37.4
			c-8.22-16.23-12.33-35.59-12.33-58.08c0-22.56,4.13-41.94,12.38-58.13s19.53-28.65,33.84-37.35c14.3-8.7,30.57-13.05,48.8-13.05
			c11.21,0,21.68,1.6,31.41,4.8c9.73,3.2,18.48,7.88,26.26,14.03c7.77,6.16,14.2,13.65,19.29,22.49
			C2864.71,1442.22,2868.15,1452.32,2869.94,1463.66z"/>
	</g>
</g>
</svg>
